<svg width="221" height="120" viewBox="0 0 221 120" fill="none" xmlns="http://www.w3.org/2000/svg">
<path d="M102 94C120.502 94 135.5 79.0015 135.5 60.5C135.5 41.9985 120.502 27 102 27C83.4985 27 68.5 41.9985 68.5 60.5C68.5 79.0015 83.4985 94 102 94Z" fill="#F4F4FF" stroke="#9AA0FE" stroke-width="2.5"/>
<path fill-rule="evenodd" clip-rule="evenodd" d="M96.6321 86.4939C98.3908 86.8185 100.18 86.9872 102 87C116.636 87 128.5 75.1355 128.5 60.5C128.5 45.8645 116.636 34 102 34C98.2404 34 94.6636 34.7829 91.4238 36.1946C85.7938 38.6479 81.1816 42.9999 78.396 48.4419C76.5445 52.0589 75.5 56.1575 75.5 60.5C75.5 64.44 76.3599 68.1792 77.9021 71.5401C79.0032 73.9396 80.4521 76.1463 82.1843 78.0956" fill="#F4F4FF"/>
<path d="M96.6321 86.4939C98.3908 86.8185 100.18 86.9872 102 87C116.636 87 128.5 75.1355 128.5 60.5C128.5 45.8645 116.636 34 102 34C98.2404 34 94.6636 34.7829 91.4238 36.1946C85.7938 38.6479 81.1816 42.9999 78.396 48.4419C76.5445 52.0589 75.5 56.1575 75.5 60.5C75.5 64.44 76.3599 68.1792 77.9021 71.5401C79.0032 73.9396 80.4521 76.1463 82.1843 78.0956" stroke="#9AA0FE" stroke-width="2.5" stroke-linecap="round"/>
<path d="M85.2979 81.0747C87.446 82.8207 89.8728 84.237 92.5013 85.2466" stroke="#9AA0FE" stroke-width="2.5" stroke-linecap="round"/>
<path d="M129.5 87L135.5 93" stroke="#9AA0FE" stroke-width="2.5"/>
<path fill-rule="evenodd" clip-rule="evenodd" d="M134.53 92.0303C132.637 93.923 132.637 96.9917 134.53 98.8844L145.615 109.97C147.508 111.862 150.577 111.862 152.469 109.97C154.362 108.077 154.362 105.008 152.469 103.116L141.384 92.0303C139.491 90.1375 136.423 90.1375 134.53 92.0303Z" fill="#F4F4FF" stroke="#9AA0FE" stroke-width="2.5"/>
<path d="M139.5 94L150.5 105" stroke="#F4F4FF" stroke-width="2.5" stroke-linecap="round"/>
<path fill-rule="evenodd" clip-rule="evenodd" d="M95.5005 49C95.5005 60.598 104.903 70 116.501 70C118.779 70 120.972 69.6372 123.027 68.9662C119.674 77.2871 111.523 83.1607 102.001 83.1607C89.4854 83.1607 79.3398 73.0152 79.3398 60.5C79.3398 49.1596 87.6702 39.7648 98.5455 38.1011C96.6135 41.2793 95.5005 45.0097 95.5005 49Z" fill="#F4F4FF"/>
<path d="M110.144 68.4955L105.062 63.396" stroke="#6168E4" stroke-width="2.5" stroke-linecap="round" stroke-linejoin="round"/>
<path d="M110.072 68.3953L93.2017 51.4968" stroke="#6168E4" stroke-width="2.5" stroke-linecap="round" stroke-linejoin="round"/>
<path d="M110.172 51.5238L96.2723 65.3953" stroke="#6168E4" stroke-width="2.5" stroke-linecap="round" stroke-linejoin="round"/>
<path d="M98.2732 63.3839L93.1737 68.4668" stroke="#6168E4" stroke-width="2.5" stroke-linecap="round" stroke-linejoin="round"/>
<path d="M159.676 59.7773H151.5M166 52H148.824H166ZM173 52H170.779H173Z" stroke="#9AA0FE" stroke-width="2.5" stroke-linecap="round" stroke-linejoin="round"/>
<path d="M137.501 12V16.8" stroke="#9AA0FE" stroke-width="2.5" stroke-linecap="round" stroke-linejoin="round"/>
<path d="M137.501 23.1998V27.9998" stroke="#9AA0FE" stroke-width="2.5" stroke-linecap="round" stroke-linejoin="round"/>
<path d="M129.5 19.9997H134.3" stroke="#9AA0FE" stroke-width="2.5" stroke-linecap="round" stroke-linejoin="round"/>
<path d="M140.7 19.9997H145.5" stroke="#9AA0FE" stroke-width="2.5" stroke-linecap="round" stroke-linejoin="round"/>
<path d="M62 85V88.25" stroke="#9AA0FE" stroke-width="2.5" stroke-linecap="round" stroke-linejoin="round"/>
<path d="M62 94.75V98" stroke="#9AA0FE" stroke-width="2.5" stroke-linecap="round" stroke-linejoin="round"/>
<path d="M55.5 91.5H58.75" stroke="#9AA0FE" stroke-width="2.5" stroke-linecap="round" stroke-linejoin="round"/>
<path d="M65.25 91.5H68.5" stroke="#9AA0FE" stroke-width="2.5" stroke-linecap="round" stroke-linejoin="round"/>
</svg>
