<svg width="16" height="16" viewBox="0 0 16 16" fill="none" xmlns="http://www.w3.org/2000/svg">
<path d="M8 10.0002C9.10457 10.0002 10 9.10473 10 8.00016C10 6.89559 9.10457 6.00016 8 6.00016C6.89543 6.00016 6 6.89559 6 8.00016C6 9.10473 6.89543 10.0002 8 10.0002Z" stroke="#1F1F26" stroke-width="1.2"/>
<path d="M9.17697 1.43483C8.9323 1.3335 8.62163 1.3335 8.0003 1.3335C7.37897 1.3335 7.0683 1.3335 6.82363 1.43483C6.66175 1.50184 6.51467 1.60009 6.39078 1.72398C6.2669 1.84786 6.16864 1.99495 6.10163 2.15683C6.0403 2.3055 6.01563 2.4795 6.0063 2.73216C6.00215 2.91482 5.95163 3.09343 5.85951 3.25121C5.76738 3.40899 5.63666 3.54077 5.47963 3.63416C5.32023 3.72352 5.14073 3.7709 4.95799 3.77183C4.77525 3.77276 4.59527 3.72723 4.43497 3.6395C4.21097 3.52083 4.04897 3.4555 3.8883 3.43416C3.53785 3.38808 3.18343 3.48303 2.90297 3.69816C2.69363 3.86016 2.53763 4.12883 2.22697 4.66683C1.9163 5.20483 1.7603 5.4735 1.7263 5.73683C1.70339 5.91046 1.71491 6.08691 1.76021 6.25609C1.80551 6.42527 1.88369 6.58387 1.9903 6.72283C2.08897 6.85083 2.22697 6.95816 2.44097 7.09283C2.7563 7.29083 2.95897 7.62816 2.95897 8.00016C2.95897 8.37216 2.7563 8.7095 2.44097 8.90683C2.22697 9.04216 2.0883 9.1495 1.9903 9.2775C1.88369 9.41645 1.80551 9.57505 1.76021 9.74423C1.71491 9.91341 1.70339 10.0899 1.7263 10.2635C1.76097 10.5262 1.9163 10.7955 2.2263 11.3335C2.53763 11.8715 2.69297 12.1402 2.90297 12.3022C3.04192 12.4088 3.20052 12.487 3.3697 12.5323C3.53888 12.5775 3.71533 12.5891 3.88897 12.5662C4.04897 12.5448 4.21097 12.4795 4.43497 12.3608C4.59527 12.2731 4.77525 12.2276 4.95799 12.2285C5.14073 12.2294 5.32023 12.2768 5.47963 12.3662C5.80163 12.5528 5.99297 12.8962 6.0063 13.2682C6.01563 13.5215 6.03963 13.6948 6.10163 13.8435C6.16864 14.0054 6.2669 14.1525 6.39078 14.2763C6.51467 14.4002 6.66175 14.4985 6.82363 14.5655C7.0683 14.6668 7.37897 14.6668 8.0003 14.6668C8.62163 14.6668 8.9323 14.6668 9.17697 14.5655C9.33885 14.4985 9.48593 14.4002 9.60982 14.2763C9.7337 14.1525 9.83196 14.0054 9.89897 13.8435C9.9603 13.6948 9.98497 13.5215 9.9943 13.2682C10.0076 12.8962 10.199 12.5522 10.521 12.3662C10.6804 12.2768 10.8599 12.2294 11.0426 12.2285C11.2254 12.2276 11.4053 12.2731 11.5656 12.3608C11.7896 12.4795 11.9516 12.5448 12.1116 12.5662C12.2853 12.5891 12.4617 12.5775 12.6309 12.5323C12.8001 12.487 12.9587 12.4088 13.0976 12.3022C13.3076 12.1408 13.463 11.8715 13.7736 11.3335C14.0843 10.7955 14.2403 10.5268 14.2743 10.2635C14.2972 10.0899 14.2857 9.91341 14.2404 9.74423C14.1951 9.57505 14.1169 9.41645 14.0103 9.2775C13.9116 9.1495 13.7736 9.04216 13.5596 8.9075C13.4035 8.81257 13.274 8.67949 13.1834 8.52078C13.0928 8.36206 13.044 8.18291 13.0416 8.00016C13.0416 7.62816 13.2443 7.29083 13.5596 7.0935C13.7736 6.95816 13.9123 6.85083 14.0103 6.72283C14.1169 6.58387 14.1951 6.42527 14.2404 6.25609C14.2857 6.08691 14.2972 5.91046 14.2743 5.73683C14.2396 5.47416 14.0843 5.20483 13.7743 4.66683C13.463 4.12883 13.3076 3.86016 13.0976 3.69816C12.9587 3.59156 12.8001 3.51337 12.6309 3.46807C12.4617 3.42278 12.2853 3.41125 12.1116 3.43416C11.9516 3.4555 11.7896 3.52083 11.565 3.6395C11.4047 3.72711 11.2249 3.77258 11.0423 3.77165C10.8597 3.77071 10.6803 3.72341 10.521 3.63416C10.3639 3.54077 10.2332 3.40899 10.1411 3.25121C10.049 3.09343 9.99845 2.91482 9.9943 2.73216C9.98497 2.47883 9.96097 2.3055 9.89897 2.15683C9.83196 1.99495 9.7337 1.84786 9.60982 1.72398C9.48593 1.60009 9.33885 1.50184 9.17697 1.43483Z" stroke="#1F1F26" stroke-width="1.2"/>
</svg>
