<svg width="76" height="84" viewBox="0 0 76 84" fill="none" xmlns="http://www.w3.org/2000/svg">
<path d="M61.1282 0.85791V41.7314C61.1282 45.9558 60.696 50.2081 59.844 54.3716C59.0225 58.3801 57.5966 62.0019 55.6072 65.1342C53.6781 68.1677 51.0066 70.6732 47.6665 72.5823C45.1199 74.0381 41.9714 74.9361 38.2887 75.2757C34.6762 74.9417 31.5843 74.0742 29.0769 72.675C25.776 70.8343 23.1106 68.3636 21.153 65.332C19.1319 62.2052 17.6935 58.5891 16.8739 54.5861C16.0219 50.4345 15.5878 46.1088 15.5878 41.7321V0.858532C11.6501 0.858532 3.33696 0.858532 0.929688 0.858532V41.7321C0.929688 46.7076 1.45641 51.654 2.49494 56.4324C3.56269 61.3613 5.4109 65.8475 7.98483 69.7634C10.6209 73.7776 14.1818 77.043 18.566 79.4689C23.9831 82.4694 30.4929 83.3295 36.6818 83.1019C38.1662 83.1553 38.5797 83.1597 40.1568 83.1019C46.2399 83.3214 52.5911 82.4924 57.9641 79.5896C62.3066 77.2426 65.8637 74.0792 68.5384 70.1863C71.1615 66.3649 73.0538 61.9055 74.162 56.9312C75.2397 52.1055 75.7857 46.9931 75.7857 41.7327V0.859153C72.9145 0.857909 64.1374 0.85791 61.1282 0.85791ZM70.9214 2.24841V41.7314C70.9214 46.8892 70.3866 51.9015 69.3319 56.6277C68.2617 61.4273 66.4396 65.7244 63.9179 69.3978C61.3689 73.1078 57.974 76.1239 53.8293 78.3651C52.7715 78.936 51.6477 79.4335 50.4606 79.8613C57.5027 76.2968 62.4751 70.5407 65.4676 62.7295C66.6572 60.2495 67.5627 57.5487 68.1578 54.6508C69.0291 50.3953 69.4706 46.0485 69.4706 41.7314V2.24841H70.9214ZM22.847 76.0953C21.056 74.7719 19.4503 73.2745 18.0455 71.6041C19.0977 72.443 20.2301 73.2098 21.4484 73.8883C25.9066 76.3764 31.4655 76.9901 36.5481 76.7837C37.9274 76.8403 38.7414 76.8359 40.0237 76.7837C45.1566 76.9926 50.8685 76.3297 55.3087 73.7881C56.7104 72.9872 57.9971 72.0824 59.1724 71.0843C56.8012 74.0276 53.8467 76.4746 50.3517 78.3639C47.0092 80.1691 42.9944 81.2468 38.4031 81.6057C35.6065 81.3892 33.032 80.9067 30.6937 80.1579C27.9967 79.296 25.618 78.1437 22.847 76.0953ZM67.4452 2.24841V41.7314C67.4452 48.243 66.5478 56.004 64.189 62.1822C63.6953 63.2064 63.1555 64.1958 62.5597 65.1336C60.5735 68.256 57.8316 70.7453 54.619 72.5817C53.6446 73.1383 52.5712 73.6053 51.4239 74.0002C55.0357 72.0556 58.081 69.2995 60.2557 65.8805C62.3365 62.6045 63.8252 58.826 64.6803 54.6501C65.5516 50.3947 65.9937 46.0478 65.9937 41.7308C65.9937 28.5485 65.9937 15.4637 65.9937 2.24779L67.4452 2.24841ZM56.7813 65.8805C58.8615 62.6045 60.3496 58.826 61.2059 54.6501C62.0772 50.3947 62.5181 46.0478 62.5181 41.7308V2.24779H64.6044C64.6044 15.4631 64.6044 28.5491 64.6044 41.7308C64.6044 45.9552 64.1716 50.2075 63.3197 54.3709C62.4975 58.3795 61.0728 62.0013 59.0841 65.1336C57.0773 68.2859 54.3367 70.7578 51.1422 72.5817C50.1683 73.1383 49.0949 73.6053 47.9476 74.0002C48.0825 73.9274 48.2243 73.864 48.3562 73.7888C51.8946 71.7683 54.7297 69.1061 56.7813 65.8805ZM14.1992 2.24841V41.7314C14.1992 46.2027 14.642 50.6211 15.5132 54.8653C16.3664 59.038 17.8726 62.814 19.9857 66.0863C22.0422 69.2734 24.9116 71.9959 28.6204 74.0002C27.5402 73.6277 26.5272 73.1918 25.6006 72.675C22.2997 70.8343 19.6344 68.3636 17.6773 65.332C15.6569 62.2052 14.2172 58.5891 13.3982 54.5861C12.5456 50.4345 12.1128 46.1088 12.1128 41.7321V2.24903L14.1992 2.24841ZM10.7229 2.24841V41.7314C10.7229 46.2027 11.1663 50.6211 12.0363 54.8653C12.8902 59.038 14.3957 62.814 16.5088 66.0863C18.5747 69.2858 21.449 72.004 25.1435 74.0002C24.0633 73.6277 23.0503 73.1918 22.125 72.675C18.8241 70.8343 16.1581 68.3636 14.2011 65.332C13.8808 64.8363 13.5798 64.3239 13.2894 63.8034C12.2285 61.4005 11.3927 58.8415 10.8056 56.1364C9.78764 51.4537 9.2721 46.6081 9.2721 41.7314V2.24841H10.7229ZM7.24666 2.24841V41.7314C7.24666 46.2027 7.68944 50.6211 8.56068 54.8653C9.27273 58.349 10.4456 61.5498 12.0419 64.4178C14.8341 70.7242 18.7743 75.512 24.8202 79.056C25.0546 79.1922 25.2803 79.3365 25.5185 79.4683C25.7623 79.6026 26.021 79.7202 26.2704 79.847C25.2474 79.4789 24.2791 79.0485 23.3544 78.5728C18.8576 76.2632 15.2284 72.9648 12.624 68.9998C10.144 65.2263 8.36292 60.8987 7.32999 56.137C6.31323 51.4544 5.79708 46.6088 5.79708 41.7321C5.79708 28.5497 5.79708 15.465 5.79708 2.24903L7.24666 2.24841ZM9.14773 68.9991C6.6677 65.2256 4.88666 60.8981 3.85497 56.1364C2.83759 51.4537 2.32143 46.6081 2.32143 41.7314V2.24841H4.4072C4.4072 15.4637 4.4072 28.5497 4.4072 41.7314C4.4072 46.707 4.93392 51.6534 5.97245 56.4318C7.06135 61.4503 9.00345 66.2281 11.9175 70.4114C14.5039 74.1258 17.9012 77.1761 22.0435 79.4683C22.286 79.6026 22.5454 79.7202 22.796 79.847C17.5312 77.9497 12.4959 74.0972 9.14773 68.9991ZM74.3971 41.7314C74.3971 46.8892 73.8623 51.9015 72.8082 56.6277C71.7379 61.4273 69.9158 65.7244 67.3948 69.3978C64.8451 73.1078 61.4509 76.1239 57.3049 78.3651C56.2484 78.936 55.124 79.4335 53.9362 79.8613C63.0927 75.2545 68.4806 66.8326 70.6889 56.9305C71.7659 52.1048 72.3126 46.9918 72.3126 41.7321V2.24903H74.3977V41.7314H74.3971Z" fill="url(#paint0_linear_13_16651)"/>
<defs>
<linearGradient id="paint0_linear_13_16651" x1="0.930061" y1="42.0008" x2="75.7861" y2="42.0008" gradientUnits="userSpaceOnUse">
<stop stop-color="#323689"/>
<stop offset="1" stop-color="#9AA0FE"/>
</linearGradient>
</defs>
</svg>
