<svg width="16" height="16" viewBox="0 0 16 16" fill="none" xmlns="http://www.w3.org/2000/svg">
<mask id="path-1-inside-1_1897_3667" fill="white">
<path d="M8.00167 1C6.96246 1 5.96581 1.36875 5.23097 2.02513C4.49613 2.6815 4.08331 3.57174 4.08331 4.5C4.08331 5.42826 4.49613 6.3185 5.23097 6.97487C5.96581 7.63125 6.96246 8 8.00167 8C9.04089 8 10.0375 7.63125 10.7724 6.97487C11.5072 6.3185 11.92 5.42826 11.92 4.5C11.92 3.57174 11.5072 2.6815 10.7724 2.02513C10.0375 1.36875 9.04089 1 8.00167 1ZM5.0629 4.5C5.0629 3.80381 5.37252 3.13613 5.92365 2.64384C6.47477 2.15156 7.22226 1.875 8.00167 1.875C8.78109 1.875 9.52857 2.15156 10.0797 2.64384C10.6308 3.13613 10.9404 3.80381 10.9404 4.5C10.9404 5.19619 10.6308 5.86387 10.0797 6.35616C9.52857 6.84844 8.78109 7.125 8.00167 7.125C7.22226 7.125 6.47477 6.84844 5.92365 6.35616C5.37252 5.86387 5.0629 5.19619 5.0629 4.5ZM3.11253 8.875C2.85454 8.87408 2.59889 8.91866 2.36023 9.00618C2.12157 9.0937 1.9046 9.22245 1.72176 9.38503C1.53893 9.54761 1.39382 9.74083 1.29477 9.95362C1.19571 10.1664 1.14466 10.3946 1.14453 10.625C1.14453 12.1046 1.96053 13.2203 3.23596 13.9474C4.4918 14.6623 6.18453 15 8.00167 15C9.81882 15 11.5116 14.6623 12.7674 13.9474C14.0428 13.2211 14.8588 12.1038 14.8588 10.625C14.8588 10.1609 14.6524 9.71575 14.285 9.38756C13.9176 9.05937 13.4192 8.875 12.8996 8.875H3.11253ZM2.12412 10.625C2.12412 10.1411 2.56298 9.75 3.11253 9.75H12.8996C13.1594 9.75 13.4086 9.84219 13.5923 10.0063C13.776 10.1704 13.8792 10.3929 13.8792 10.625C13.8792 11.7704 13.2699 12.6235 12.2404 13.2089C11.1922 13.8065 9.70127 14.125 8.00167 14.125C6.30208 14.125 4.81114 13.8065 3.76298 13.2089C2.73441 12.6226 2.12412 11.7712 2.12412 10.625Z"/>
</mask>
<path d="M8.00167 1V-0.2V1ZM4.08331 4.5H2.88331H4.08331ZM8.00167 8V9.2V8ZM11.92 4.5H13.12H11.92ZM8.00167 1.875V0.675V1.875ZM10.9404 4.5H12.1404H10.9404ZM3.11253 8.875L3.10825 10.075H3.11253V8.875ZM1.14453 10.625L-0.0554688 10.6243V10.625H1.14453ZM3.23596 13.9474L2.64164 14.9899L2.64231 14.9902L3.23596 13.9474ZM12.7674 13.9474L13.361 14.9902L13.3612 14.9902L12.7674 13.9474ZM12.2404 13.2089L11.6472 12.1657L11.646 12.1664L12.2404 13.2089ZM3.76298 13.2089L4.35735 12.1664L4.3572 12.1663L3.76298 13.2089ZM8.00167 -0.2C6.68519 -0.2 5.39914 0.265899 4.43157 1.13017L6.03037 2.92009C6.53247 2.4716 7.23972 2.2 8.00167 2.2V-0.2ZM4.43157 1.13017C3.45955 1.9984 2.88331 3.20695 2.88331 4.5H5.28331C5.28331 3.93653 5.53271 3.36461 6.03037 2.92009L4.43157 1.13017ZM2.88331 4.5C2.88331 5.79305 3.45955 7.0016 4.43157 7.86983L6.03037 6.07991C5.53271 5.63539 5.28331 5.06347 5.28331 4.5H2.88331ZM4.43157 7.86983C5.39914 8.7341 6.68519 9.2 8.00167 9.2V6.8C7.23972 6.8 6.53247 6.5284 6.03037 6.07991L4.43157 7.86983ZM8.00167 9.2C9.31815 9.2 10.6042 8.7341 11.5718 7.86983L9.97297 6.07991C9.47088 6.5284 8.76363 6.8 8.00167 6.8V9.2ZM11.5718 7.86983C12.5438 7.0016 13.12 5.79305 13.12 4.5H10.72C10.72 5.06347 10.4706 5.63539 9.97297 6.07991L11.5718 7.86983ZM13.12 4.5C13.12 3.20695 12.5438 1.9984 11.5718 1.13017L9.97297 2.92009C10.4706 3.36461 10.72 3.93653 10.72 4.5H13.12ZM11.5718 1.13017C10.6042 0.265899 9.31815 -0.2 8.00167 -0.2V2.2C8.76363 2.2 9.47088 2.4716 9.97297 2.92009L11.5718 1.13017ZM6.2629 4.5C6.2629 4.1686 6.4091 3.81923 6.72305 3.5388L5.12424 1.74888C4.33594 2.45302 3.8629 3.43901 3.8629 4.5H6.2629ZM6.72305 3.5388C7.04144 3.25441 7.49953 3.075 8.00167 3.075V0.675C6.945 0.675 5.90811 1.04871 5.12424 1.74888L6.72305 3.5388ZM8.00167 3.075C8.50382 3.075 8.96191 3.25441 9.2803 3.5388L10.8791 1.74888C10.0952 1.04871 9.05835 0.675 8.00167 0.675V3.075ZM9.2803 3.5388C9.59425 3.81923 9.74045 4.1686 9.74045 4.5H12.1404C12.1404 3.43901 11.6674 2.45302 10.8791 1.74888L9.2803 3.5388ZM9.74045 4.5C9.74045 4.8314 9.59425 5.18077 9.2803 5.4612L10.8791 7.25112C11.6674 6.54698 12.1404 5.56099 12.1404 4.5H9.74045ZM9.2803 5.4612C8.96191 5.74559 8.50382 5.925 8.00167 5.925V8.325C9.05835 8.325 10.0952 7.95129 10.8791 7.25112L9.2803 5.4612ZM8.00167 5.925C7.49953 5.925 7.04144 5.74559 6.72305 5.4612L5.12424 7.25112C5.90811 7.95129 6.945 8.325 8.00167 8.325V5.925ZM6.72305 5.4612C6.4091 5.18077 6.2629 4.8314 6.2629 4.5H3.8629C3.8629 5.56099 4.33594 6.54698 5.12424 7.25112L6.72305 5.4612ZM3.11682 7.67501C2.71859 7.67359 2.32144 7.74226 1.94706 7.87955L2.77339 10.1328C2.87634 10.0951 2.99049 10.0746 3.10825 10.075L3.11682 7.67501ZM1.94706 7.87955C1.57264 8.01686 1.22409 8.22176 0.924358 8.48829L2.51917 10.2818C2.58511 10.2231 2.6705 10.1705 2.77339 10.1328L1.94706 7.87955ZM0.924358 8.48829C0.624363 8.75505 0.378024 9.07952 0.206871 9.44718L2.38266 10.4601C2.40962 10.4022 2.45349 10.3402 2.51917 10.2818L0.924358 8.48829ZM0.206871 9.44718C0.0354761 9.81536 -0.0552437 10.2158 -0.0554686 10.6243L2.34453 10.6257C2.34456 10.5733 2.35595 10.5174 2.38266 10.4601L0.206871 9.44718ZM-0.0554688 10.625C-0.0554688 12.6303 1.0819 14.1007 2.64164 14.9899L3.83028 12.9049C2.83916 12.3398 2.34453 11.5789 2.34453 10.625H-0.0554688ZM2.64231 14.9902C4.14028 15.843 6.06046 16.2 8.00167 16.2V13.8C6.3086 13.8 4.84331 13.4815 3.82961 12.9045L2.64231 14.9902ZM8.00167 16.2C9.94289 16.2 11.8631 15.843 13.361 14.9902L12.1737 12.9045C11.16 13.4815 9.69475 13.8 8.00167 13.8V16.2ZM13.3612 14.9902C14.9219 14.1014 16.0588 12.6289 16.0588 10.625H13.6588C13.6588 11.5786 13.1637 12.3408 12.1736 12.9046L13.3612 14.9902ZM16.0588 10.625C16.0588 9.79608 15.689 9.03265 15.0844 8.4926L13.4856 10.2825C13.6158 10.3989 13.6588 10.5257 13.6588 10.625H16.0588ZM15.0844 8.4926C14.4842 7.95653 13.6965 7.675 12.8996 7.675V10.075C13.142 10.075 13.3509 10.1622 13.4856 10.2825L15.0844 8.4926ZM12.8996 7.675H3.11253V10.075H12.8996V7.675ZM3.32412 10.625C3.32412 10.7619 3.25898 10.859 3.20858 10.9037C3.1606 10.9463 3.12196 10.95 3.11253 10.95V8.55C2.03941 8.55 0.924123 9.34729 0.924123 10.625H3.32412ZM3.11253 10.95H12.8996V8.55H3.11253V10.95ZM12.8996 10.95C12.8882 10.95 12.8744 10.9481 12.8581 10.942C12.8418 10.936 12.8186 10.9242 12.7929 10.9012L14.3917 9.11132C13.9753 8.73934 13.4367 8.55 12.8996 8.55V10.95ZM12.7929 10.9012C12.7394 10.8535 12.6792 10.7577 12.6792 10.625H15.0792C15.0792 10.0281 14.8126 9.48727 14.3917 9.11132L12.7929 10.9012ZM12.6792 10.625C12.6792 11.2463 12.3896 11.7436 11.6472 12.1657L12.8335 14.252C14.1502 13.5034 15.0792 12.2944 15.0792 10.625H12.6792ZM11.646 12.1664C10.8403 12.6258 9.57721 12.925 8.00167 12.925V15.325C9.82532 15.325 11.5441 14.9872 12.8347 14.2513L11.646 12.1664ZM8.00167 12.925C6.42613 12.925 5.16303 12.6258 4.35735 12.1664L3.16861 14.2513C4.45925 14.9872 6.17803 15.325 8.00167 15.325V12.925ZM4.3572 12.1663C3.61356 11.7425 3.32412 11.2461 3.32412 10.625H0.924123C0.924123 12.2964 1.85526 13.5028 3.16876 14.2514L4.3572 12.1663Z" fill="black" mask="url(#path-1-inside-1_1897_3667)"/>
</svg>
