<svg width="16" height="16" viewBox="0 0 16 16" fill="none" xmlns="http://www.w3.org/2000/svg">
<path d="M8 10.25L10.25 8M10.25 8L8 5.75M10.25 8H2M5.75 4.43675V4.4C5.75 3.56 5.75 3.14 5.9135 2.819C6.0575 2.53625 6.28625 2.3075 6.569 2.1635C6.89 2 7.31 2 8.15 2H11.6C12.44 2 12.86 2 13.1803 2.1635C13.463 2.3075 13.6925 2.53625 13.8365 2.819C14 3.13925 14 3.55925 14 4.39775V11.603C14 12.4415 14 12.8608 13.8365 13.181C13.6924 13.4633 13.4627 13.6927 13.1803 13.8365C12.86 14 12.4407 14 11.6022 14H8.14775C7.30925 14 6.88925 14 6.569 13.8365C6.28677 13.6927 6.05731 13.4632 5.9135 13.181C5.75 12.86 5.75 12.44 5.75 11.6V11.5625" stroke="black" stroke-width="1.2" stroke-linecap="round" stroke-linejoin="round"/>
</svg>
